<svg width="19" height="19" viewBox="0 0 17 17" fill="none" xmlns="http://www.w3.org/2000/svg">
<path d="M15.6885 6.83984H11.4385C11.3655 6.83984 11.3057 6.89961 11.3057 6.97266V7.76953C11.3057 7.84258 11.3655 7.90234 11.4385 7.90234H15.6885C15.7615 7.90234 15.8213 7.84258 15.8213 7.76953V6.97266C15.8213 6.89961 15.7615 6.83984 15.6885 6.83984ZM13.4639 9.09766H11.4385C11.3655 9.09766 11.3057 9.15742 11.3057 9.23047V10.0273C11.3057 10.1004 11.3655 10.1602 11.4385 10.1602H13.4639C13.5369 10.1602 13.5967 10.1004 13.5967 10.0273V9.23047C13.5967 9.15742 13.5369 9.09766 13.4639 9.09766ZM7.92395 5.354H7.2051C7.10217 5.354 7.01917 5.43701 7.01917 5.53994V9.65713C7.01917 9.71689 7.04739 9.77168 7.09553 9.80654L9.5675 11.6095C9.65051 11.6692 9.76672 11.6526 9.82649 11.5696L10.2531 10.9869V10.9853C10.3129 10.9022 10.2947 10.786 10.2116 10.7263L8.10823 9.20557V5.53994C8.10989 5.43701 8.02522 5.354 7.92395 5.354V5.354Z" fill="black"/>
<path d="M13.3609 11.1878H12.4014C12.3084 11.1878 12.2204 11.2359 12.1706 11.3156C11.9598 11.6493 11.7141 11.9581 11.4318 12.2403C10.9454 12.7268 10.3793 13.1086 9.75011 13.3742C9.09767 13.6498 8.40538 13.7893 7.69151 13.7893C6.97599 13.7893 6.2837 13.6498 5.63292 13.3742C5.00372 13.1086 4.43761 12.7268 3.95118 12.2403C3.46476 11.7539 3.08292 11.1878 2.8173 10.5586C2.54171 9.90782 2.40226 9.21553 2.40226 8.50001C2.40226 7.78448 2.54171 7.09385 2.8173 6.44141C3.08292 5.81221 3.46476 5.2461 3.95118 4.75967C4.43761 4.27325 5.00372 3.89141 5.63292 3.62579C6.2837 3.3502 6.97765 3.21075 7.69151 3.21075C8.40704 3.21075 9.09933 3.3502 9.75011 3.62579C10.3793 3.89141 10.9454 4.27325 11.4318 4.75967C11.7141 5.0419 11.9598 5.35069 12.1706 5.68438C12.2204 5.76407 12.3084 5.81221 12.4014 5.81221H13.3609C13.4755 5.81221 13.5485 5.69268 13.4971 5.59141C12.4147 3.43819 10.2199 2.03868 7.76954 2.01046C4.18194 1.96563 1.20196 4.90245 1.19532 8.48672C1.18868 12.0776 4.09894 14.9912 7.68986 14.9912C10.1718 14.9912 12.403 13.5867 13.4971 11.4086C13.5485 11.3073 13.4738 11.1878 13.3609 11.1878V11.1878Z" fill="black"/>
</svg>
